<svg width="147" height="36" viewBox="0 0 147 36" fill="none" xmlns="http://www.w3.org/2000/svg">
<path d="M18.2833 29.6844L21.1417 29.015L21.8427 28.8507C23.3914 28.4881 24.3527 26.9385 23.9901 25.3899L23.4997 23.296C23.2068 22.0454 22.121 21.1399 20.8381 21.0762L19.4727 21.0087C18.1776 20.9445 17.085 20.0227 16.8038 18.757L16.427 17.0611C16.107 15.6215 17.0519 14.2057 18.5042 13.9489C19.9678 13.69 20.9139 12.2551 20.5749 10.8079L19.8854 7.86411C19.5227 6.31543 17.9732 5.35402 16.4245 5.71672L12.6788 6.594C11.9352 6.76817 11.2946 7.23327 11.0256 7.94815C10.2228 10.0812 9.09598 14.8366 10.9675 20.3055C12.4327 24.587 14.5158 27.5187 15.9325 29.0481C16.527 29.6899 17.4314 29.8839 18.2833 29.6844Z" stroke="black" stroke-width="2" stroke-linecap="round"/>
<path d="M64.48 26.76C63.4267 26.76 62.4467 26.5667 61.54 26.18C60.6467 25.7933 59.8667 25.26 59.2 24.58C58.5467 23.8867 58.0333 23.0733 57.66 22.14C57.2867 21.2067 57.1 20.18 57.1 19.06C57.1 17.9533 57.28 16.9333 57.64 16C58.0133 15.0533 58.5333 14.24 59.2 13.56C59.8667 12.8667 60.6467 12.3333 61.54 11.96C62.4333 11.5733 63.4133 11.38 64.48 11.38C65.5333 11.38 66.4733 11.56 67.3 11.92C68.14 12.28 68.8467 12.7533 69.42 13.34C69.9933 13.9133 70.4067 14.54 70.66 15.22L68.54 16.22C68.22 15.42 67.7067 14.7733 67 14.28C66.3067 13.7733 65.4667 13.52 64.48 13.52C63.4933 13.52 62.62 13.7533 61.86 14.22C61.1 14.6867 60.5067 15.3333 60.08 16.16C59.6667 16.9867 59.46 17.9533 59.46 19.06C59.46 20.1667 59.6667 21.14 60.08 21.98C60.5067 22.8067 61.1 23.4533 61.86 23.92C62.62 24.3733 63.4933 24.6 64.48 24.6C65.4667 24.6 66.3067 24.3533 67 23.86C67.7067 23.3667 68.22 22.72 68.54 21.92L70.66 22.92C70.4067 23.5867 69.9933 24.2133 69.42 24.8C68.8467 25.3867 68.14 25.86 67.3 26.22C66.4733 26.58 65.5333 26.76 64.48 26.76ZM77.8916 26.76C76.8516 26.76 75.8982 26.5133 75.0316 26.02C74.1782 25.5267 73.4982 24.8533 72.9916 24C72.4849 23.1467 72.2316 22.18 72.2316 21.1C72.2316 20.0067 72.4849 19.04 72.9916 18.2C73.4982 17.3467 74.1782 16.68 75.0316 16.2C75.8849 15.7067 76.8382 15.46 77.8916 15.46C78.9582 15.46 79.9116 15.7067 80.7516 16.2C81.6049 16.68 82.2782 17.3467 82.7716 18.2C83.2782 19.04 83.5316 20.0067 83.5316 21.1C83.5316 22.1933 83.2782 23.1667 82.7716 24.02C82.2649 24.8733 81.5849 25.5467 80.7316 26.04C79.8782 26.52 78.9316 26.76 77.8916 26.76ZM77.8916 24.66C78.5316 24.66 79.0982 24.5067 79.5916 24.2C80.0849 23.8933 80.4716 23.4733 80.7516 22.94C81.0449 22.3933 81.1916 21.78 81.1916 21.1C81.1916 20.42 81.0449 19.8133 80.7516 19.28C80.4716 18.7467 80.0849 18.3267 79.5916 18.02C79.0982 17.7133 78.5316 17.56 77.8916 17.56C77.2649 17.56 76.6982 17.7133 76.1916 18.02C75.6982 18.3267 75.3049 18.7467 75.0116 19.28C74.7316 19.8133 74.5916 20.42 74.5916 21.1C74.5916 21.78 74.7316 22.3933 75.0116 22.94C75.3049 23.4733 75.6982 23.8933 76.1916 24.2C76.6982 24.5067 77.2649 24.66 77.8916 24.66ZM85.738 26.52V15.7H87.898V17.82L87.638 17.54C87.9046 16.86 88.3313 16.3467 88.918 16C89.5046 15.64 90.1846 15.46 90.958 15.46C91.758 15.46 92.4646 15.6333 93.078 15.98C93.6913 16.3267 94.1713 16.8067 94.518 17.42C94.8646 18.0333 95.038 18.74 95.038 19.54V26.52H92.798V20.14C92.798 19.5933 92.698 19.1333 92.498 18.76C92.298 18.3733 92.0113 18.08 91.638 17.88C91.278 17.6667 90.8646 17.56 90.398 17.56C89.9313 17.56 89.5113 17.6667 89.138 17.88C88.778 18.08 88.498 18.3733 88.298 18.76C88.098 19.1467 87.998 19.6067 87.998 20.14V26.52H85.738ZM102.137 26.64C101.003 26.64 100.123 26.32 99.4967 25.68C98.8701 25.04 98.5567 24.14 98.5567 22.98V17.74H96.6567V15.7H96.9567C97.4634 15.7 97.8567 15.5533 98.1367 15.26C98.4167 14.9667 98.5567 14.5667 98.5567 14.06V13.22H100.817V15.7H103.277V17.74H100.817V22.88C100.817 23.2533 100.877 23.5733 100.997 23.84C101.117 24.0933 101.31 24.2933 101.577 24.44C101.843 24.5733 102.19 24.64 102.617 24.64C102.723 24.64 102.843 24.6333 102.977 24.62C103.11 24.6067 103.237 24.5933 103.357 24.58V26.52C103.17 26.5467 102.963 26.5733 102.737 26.6C102.51 26.6267 102.31 26.64 102.137 26.64ZM108.705 26.76C107.971 26.76 107.325 26.6333 106.765 26.38C106.218 26.1133 105.791 25.7533 105.485 25.3C105.178 24.8333 105.025 24.2867 105.025 23.66C105.025 23.0733 105.151 22.5467 105.405 22.08C105.671 21.6133 106.078 21.22 106.625 20.9C107.171 20.58 107.858 20.3533 108.685 20.22L112.445 19.6V21.38L109.125 21.96C108.525 22.0667 108.085 22.26 107.805 22.54C107.525 22.8067 107.385 23.1533 107.385 23.58C107.385 23.9933 107.538 24.3333 107.845 24.6C108.165 24.8533 108.571 24.98 109.065 24.98C109.678 24.98 110.211 24.8467 110.665 24.58C111.131 24.3133 111.491 23.96 111.745 23.52C111.998 23.0667 112.125 22.5667 112.125 22.02V19.24C112.125 18.7067 111.925 18.2733 111.525 17.94C111.138 17.5933 110.618 17.42 109.965 17.42C109.365 17.42 108.838 17.58 108.385 17.9C107.945 18.2067 107.618 18.6067 107.405 19.1L105.525 18.16C105.725 17.6267 106.051 17.16 106.505 16.76C106.958 16.3467 107.485 16.0267 108.085 15.8C108.698 15.5733 109.345 15.46 110.025 15.46C110.878 15.46 111.631 15.62 112.285 15.94C112.951 16.26 113.465 16.7067 113.825 17.28C114.198 17.84 114.385 18.4933 114.385 19.24V26.52H112.225V24.56L112.685 24.62C112.431 25.06 112.105 25.44 111.705 25.76C111.318 26.08 110.871 26.3267 110.365 26.5C109.871 26.6733 109.318 26.76 108.705 26.76ZM122.167 26.76C121.087 26.76 120.127 26.5133 119.287 26.02C118.46 25.5133 117.8 24.8333 117.307 23.98C116.827 23.1267 116.587 22.16 116.587 21.08C116.587 20.0133 116.827 19.0533 117.307 18.2C117.787 17.3467 118.447 16.68 119.287 16.2C120.127 15.7067 121.087 15.46 122.167 15.46C122.9 15.46 123.587 15.5933 124.227 15.86C124.867 16.1133 125.42 16.4667 125.887 16.92C126.367 17.3733 126.72 17.9 126.947 18.5L124.967 19.42C124.74 18.86 124.374 18.4133 123.867 18.08C123.374 17.7333 122.807 17.56 122.167 17.56C121.554 17.56 121 17.7133 120.507 18.02C120.027 18.3133 119.647 18.7333 119.367 19.28C119.087 19.8133 118.947 20.42 118.947 21.1C118.947 21.78 119.087 22.3933 119.367 22.94C119.647 23.4733 120.027 23.8933 120.507 24.2C121 24.5067 121.554 24.66 122.167 24.66C122.82 24.66 123.387 24.4933 123.867 24.16C124.36 23.8133 124.727 23.3533 124.967 22.78L126.947 23.72C126.734 24.2933 126.387 24.8133 125.907 25.28C125.44 25.7333 124.887 26.0933 124.247 26.36C123.607 26.6267 122.914 26.76 122.167 26.76ZM133.836 26.64C132.703 26.64 131.823 26.32 131.196 25.68C130.569 25.04 130.256 24.14 130.256 22.98V17.74H128.356V15.7H128.656C129.163 15.7 129.556 15.5533 129.836 15.26C130.116 14.9667 130.256 14.5667 130.256 14.06V13.22H132.516V15.7H134.976V17.74H132.516V22.88C132.516 23.2533 132.576 23.5733 132.696 23.84C132.816 24.0933 133.009 24.2933 133.276 24.44C133.543 24.5733 133.889 24.64 134.316 24.64C134.423 24.64 134.543 24.6333 134.676 24.62C134.809 24.6067 134.936 24.5933 135.056 24.58V26.52C134.869 26.5467 134.663 26.5733 134.436 26.6C134.209 26.6267 134.009 26.64 133.836 26.64ZM141.261 26.76C140.155 26.76 139.181 26.4867 138.341 25.94C137.515 25.3933 136.935 24.66 136.601 23.74L138.341 22.92C138.635 23.5333 139.035 24.02 139.541 24.38C140.061 24.74 140.635 24.92 141.261 24.92C141.795 24.92 142.228 24.8 142.561 24.56C142.895 24.32 143.061 23.9933 143.061 23.58C143.061 23.3133 142.988 23.1 142.841 22.94C142.695 22.7667 142.508 22.6267 142.281 22.52C142.068 22.4133 141.848 22.3333 141.621 22.28L139.921 21.8C138.988 21.5333 138.288 21.1333 137.821 20.6C137.368 20.0533 137.141 19.42 137.141 18.7C137.141 18.0467 137.308 17.48 137.641 17C137.975 16.5067 138.435 16.1267 139.021 15.86C139.608 15.5933 140.268 15.46 141.001 15.46C141.988 15.46 142.868 15.7067 143.641 16.2C144.415 16.68 144.961 17.3533 145.281 18.22L143.541 19.04C143.328 18.52 142.988 18.1067 142.521 17.8C142.068 17.4933 141.555 17.34 140.981 17.34C140.488 17.34 140.095 17.46 139.801 17.7C139.508 17.9267 139.361 18.2267 139.361 18.6C139.361 18.8533 139.428 19.0667 139.561 19.24C139.695 19.4 139.868 19.5333 140.081 19.64C140.295 19.7333 140.515 19.8133 140.741 19.88L142.501 20.4C143.395 20.6533 144.081 21.0533 144.561 21.6C145.041 22.1333 145.281 22.7733 145.281 23.52C145.281 24.16 145.108 24.7267 144.761 25.22C144.428 25.7 143.961 26.08 143.361 26.36C142.761 26.6267 142.061 26.76 141.261 26.76Z" fill="black"/>
</svg>
