<svg width="114" height="35" viewBox="0 0 114 35" fill="none" xmlns="http://www.w3.org/2000/svg">
<path d="M30.1 17.2241V24.7917C30.1 27.5415 30.1 28.9164 29.2799 29.7707C28.4598 30.625 27.1399 30.625 24.5 30.625H20.1526H10.5C7.86016 30.625 6.54022 30.625 5.72013 29.7707C4.90002 28.9164 4.90002 27.5415 4.90002 24.7917V19.3213C4.90002 17.961 4.90002 17.281 5.17024 16.6876C5.44045 16.0942 5.94612 15.664 6.95744 14.8035L13.8481 8.94056C15.5929 7.45592 16.4654 6.7136 17.4871 6.72949C18.5089 6.74538 19.3596 7.5145 21.0612 9.05276L23.1461 10.9375M30.1 17.2241L23.1461 10.9375M30.1 17.2241V7.29167C30.1 5.68084 28.8465 4.375 27.3 4.375C26.0157 4.375 25.3735 4.375 24.8667 4.58951C24.1598 4.88862 23.6008 5.4752 23.3188 6.21359C23.1167 6.74311 23.1213 7.41204 23.1307 8.74988L23.1461 10.9375" stroke="black" stroke-width="2"/>
<path d="M14 31.3541V24.0625C14 22.4516 15.2536 21.1458 16.8 21.1458H17.5C19.0464 21.1458 20.3 22.4516 20.3 24.0625V29.1666" stroke="black" stroke-width="2"/>
<path d="M56.54 26V11.1H58.9V17.66H65.8V11.1H68.14V26H65.8V19.76H58.9V26H56.54ZM76.2275 26.24C75.1875 26.24 74.2342 25.9933 73.3675 25.5C72.5142 25.0067 71.8342 24.3333 71.3275 23.48C70.8208 22.6267 70.5675 21.66 70.5675 20.58C70.5675 19.4867 70.8208 18.52 71.3275 17.68C71.8342 16.8267 72.5142 16.16 73.3675 15.68C74.2208 15.1867 75.1742 14.94 76.2275 14.94C77.2942 14.94 78.2475 15.1867 79.0875 15.68C79.9408 16.16 80.6142 16.8267 81.1075 17.68C81.6142 18.52 81.8675 19.4867 81.8675 20.58C81.8675 21.6733 81.6142 22.6467 81.1075 23.5C80.6008 24.3533 79.9208 25.0267 79.0675 25.52C78.2142 26 77.2675 26.24 76.2275 26.24ZM76.2275 24.14C76.8675 24.14 77.4342 23.9867 77.9275 23.68C78.4208 23.3733 78.8075 22.9533 79.0875 22.42C79.3808 21.8733 79.5275 21.26 79.5275 20.58C79.5275 19.9 79.3808 19.2933 79.0875 18.76C78.8075 18.2267 78.4208 17.8067 77.9275 17.5C77.4342 17.1933 76.8675 17.04 76.2275 17.04C75.6008 17.04 75.0342 17.1933 74.5275 17.5C74.0342 17.8067 73.6408 18.2267 73.3475 18.76C73.0675 19.2933 72.9275 19.9 72.9275 20.58C72.9275 21.26 73.0675 21.8733 73.3475 22.42C73.6408 22.9533 74.0342 23.3733 74.5275 23.68C75.0342 23.9867 75.6008 24.14 76.2275 24.14ZM84.0739 26V15.18H86.2339V17.52L85.9539 17.16C86.1806 16.4267 86.5939 15.8733 87.1939 15.5C87.7939 15.1267 88.4806 14.94 89.2539 14.94C90.1206 14.94 90.8872 15.1733 91.5539 15.64C92.2339 16.0933 92.6872 16.7 92.9139 17.46L92.2739 17.52C92.5939 16.6533 93.0806 16.0067 93.7339 15.58C94.4006 15.1533 95.1606 14.94 96.0139 14.94C96.7606 14.94 97.4339 15.1133 98.0339 15.46C98.6472 15.8067 99.1339 16.2867 99.4939 16.9C99.8539 17.5133 100.034 18.2133 100.034 19V26H97.7739V19.62C97.7739 19.0733 97.6739 18.6133 97.4739 18.24C97.2872 17.8533 97.0206 17.56 96.6739 17.36C96.3406 17.1467 95.9472 17.04 95.4939 17.04C95.0406 17.04 94.6406 17.1467 94.2939 17.36C93.9472 17.56 93.6739 17.8533 93.4739 18.24C93.2739 18.6267 93.1739 19.0867 93.1739 19.62V26H90.9339V19.62C90.9339 19.0733 90.8339 18.6133 90.6339 18.24C90.4472 17.8533 90.1806 17.56 89.8339 17.36C89.5006 17.1467 89.1006 17.04 88.6339 17.04C88.1806 17.04 87.7806 17.1467 87.4339 17.36C87.0872 17.56 86.8139 17.8533 86.6139 18.24C86.4272 18.6267 86.3339 19.0867 86.3339 19.62V26H84.0739ZM107.533 26.24C106.453 26.24 105.493 25.9933 104.653 25.5C103.826 24.9933 103.179 24.3133 102.713 23.46C102.246 22.5933 102.013 21.6267 102.013 20.56C102.013 19.4667 102.246 18.5 102.713 17.66C103.193 16.82 103.833 16.16 104.633 15.68C105.433 15.1867 106.339 14.94 107.353 14.94C108.166 14.94 108.893 15.08 109.533 15.36C110.173 15.64 110.713 16.0267 111.153 16.52C111.593 17 111.926 17.5533 112.153 18.18C112.393 18.8067 112.513 19.4733 112.513 20.18C112.513 20.3533 112.506 20.5333 112.493 20.72C112.479 20.9067 112.453 21.08 112.413 21.24H103.793V19.44H111.133L110.053 20.26C110.186 19.6067 110.139 19.0267 109.913 18.52C109.699 18 109.366 17.5933 108.913 17.3C108.473 16.9933 107.953 16.84 107.353 16.84C106.753 16.84 106.219 16.9933 105.753 17.3C105.286 17.5933 104.926 18.02 104.673 18.58C104.419 19.1267 104.319 19.7933 104.373 20.58C104.306 21.3133 104.406 21.9533 104.673 22.5C104.953 23.0467 105.339 23.4733 105.833 23.78C106.339 24.0867 106.913 24.24 107.553 24.24C108.206 24.24 108.759 24.0933 109.213 23.8C109.679 23.5067 110.046 23.1267 110.313 22.66L112.153 23.56C111.939 24.0667 111.606 24.5267 111.153 24.94C110.713 25.34 110.179 25.66 109.553 25.9C108.939 26.1267 108.266 26.24 107.533 26.24Z" fill="black"/>
</svg>
