<svg width="137" height="36" viewBox="0 0 137 36" fill="none" xmlns="http://www.w3.org/2000/svg">
<path d="M15.1777 29.6448L17.0592 22.0416M17.0592 22.0416L18 18.24L18.9407 14.4384M17.0592 22.0416L18.9407 14.4384M20.8222 6.83524L18.9407 14.4384" stroke="black" stroke-width="2" stroke-linecap="round"/>
<path d="M12.24 10.9483L7.07644 16.1776C5.95173 17.3166 5.95174 19.1634 7.07644 20.3024L12.24 25.5317" stroke="black" stroke-width="2" stroke-linecap="round" stroke-linejoin="round"/>
<path d="M23.76 10.9483L28.9236 16.1776C30.0482 17.3166 30.0482 19.1634 28.9236 20.3024L23.76 25.5317" stroke="black" stroke-width="2" stroke-linecap="round" stroke-linejoin="round"/>
<path d="M57.54 26.74V11.84H62.96C63.96 11.84 64.84 12.0267 65.6 12.4C66.3733 12.76 66.9733 13.2933 67.4 14C67.8267 14.6933 68.04 15.5267 68.04 16.5C68.04 17.46 67.82 18.2867 67.38 18.98C66.9533 19.6733 66.36 20.2067 65.6 20.58C64.84 20.9533 63.96 21.14 62.96 21.14H59.9V26.74H57.54ZM59.9 19.04H63.02C63.5533 19.04 64.02 18.9333 64.42 18.72C64.82 18.5067 65.1333 18.2133 65.36 17.84C65.5867 17.4533 65.7 17 65.7 16.48C65.7 15.96 65.5867 15.5133 65.36 15.14C65.1333 14.7533 64.82 14.46 64.42 14.26C64.02 14.0467 63.5533 13.94 63.02 13.94H59.9V19.04ZM70.2497 26.74V15.92H72.4097V18.1L72.2097 17.78C72.4497 17.0733 72.8364 16.5667 73.3697 16.26C73.903 15.94 74.543 15.78 75.2897 15.78H75.9497V17.84H75.0097C74.263 17.84 73.6564 18.0733 73.1897 18.54C72.7364 18.9933 72.5097 19.6467 72.5097 20.5V26.74H70.2497ZM82.7158 26.98C81.6758 26.98 80.7224 26.7333 79.8558 26.24C79.0024 25.7467 78.3224 25.0733 77.8158 24.22C77.3091 23.3667 77.0558 22.4 77.0558 21.32C77.0558 20.2267 77.3091 19.26 77.8158 18.42C78.3224 17.5667 79.0024 16.9 79.8558 16.42C80.7091 15.9267 81.6624 15.68 82.7158 15.68C83.7824 15.68 84.7358 15.9267 85.5758 16.42C86.4291 16.9 87.1024 17.5667 87.5958 18.42C88.1024 19.26 88.3558 20.2267 88.3558 21.32C88.3558 22.4133 88.1024 23.3867 87.5958 24.24C87.0891 25.0933 86.4091 25.7667 85.5558 26.26C84.7024 26.74 83.7558 26.98 82.7158 26.98ZM82.7158 24.88C83.3558 24.88 83.9224 24.7267 84.4158 24.42C84.9091 24.1133 85.2958 23.6933 85.5758 23.16C85.8691 22.6133 86.0158 22 86.0158 21.32C86.0158 20.64 85.8691 20.0333 85.5758 19.5C85.2958 18.9667 84.9091 18.5467 84.4158 18.24C83.9224 17.9333 83.3558 17.78 82.7158 17.78C82.0891 17.78 81.5224 17.9333 81.0158 18.24C80.5224 18.5467 80.1291 18.9667 79.8358 19.5C79.5558 20.0333 79.4158 20.64 79.4158 21.32C79.4158 22 79.5558 22.6133 79.8358 23.16C80.1291 23.6933 80.5224 24.1133 81.0158 24.42C81.5224 24.7267 82.0891 24.88 82.7158 24.88ZM88.9022 31.16C88.7555 31.16 88.5955 31.1467 88.4222 31.12C88.2355 31.1067 88.0822 31.0867 87.9622 31.06V29.1C88.2155 29.14 88.4689 29.16 88.7222 29.16C89.2822 29.16 89.7289 29.0133 90.0622 28.72C90.3955 28.44 90.5622 28.0133 90.5622 27.44V15.92H92.8222V27.44C92.8222 28.2267 92.6555 28.9 92.3222 29.46C91.9889 30.02 91.5289 30.44 90.9422 30.72C90.3555 31.0133 89.6755 31.16 88.9022 31.16ZM90.5622 14.44V11.84H92.8222V14.44H90.5622ZM100.545 26.98C99.4645 26.98 98.5045 26.7333 97.6645 26.24C96.8379 25.7333 96.1912 25.0533 95.7245 24.2C95.2579 23.3333 95.0245 22.3667 95.0245 21.3C95.0245 20.2067 95.2579 19.24 95.7245 18.4C96.2045 17.56 96.8445 16.9 97.6445 16.42C98.4445 15.9267 99.3512 15.68 100.365 15.68C101.178 15.68 101.905 15.82 102.545 16.1C103.185 16.38 103.725 16.7667 104.165 17.26C104.605 17.74 104.938 18.2933 105.165 18.92C105.405 19.5467 105.525 20.2133 105.525 20.92C105.525 21.0933 105.518 21.2733 105.505 21.46C105.491 21.6467 105.465 21.82 105.425 21.98H96.8045V20.18H104.145L103.065 21C103.198 20.3467 103.151 19.7667 102.925 19.26C102.711 18.74 102.378 18.3333 101.925 18.04C101.485 17.7333 100.965 17.58 100.365 17.58C99.7645 17.58 99.2312 17.7333 98.7645 18.04C98.2979 18.3333 97.9379 18.76 97.6845 19.32C97.4312 19.8667 97.3312 20.5333 97.3845 21.32C97.3179 22.0533 97.4179 22.6933 97.6845 23.24C97.9645 23.7867 98.3512 24.2133 98.8445 24.52C99.3512 24.8267 99.9245 24.98 100.565 24.98C101.218 24.98 101.771 24.8333 102.225 24.54C102.691 24.2467 103.058 23.8667 103.325 23.4L105.165 24.3C104.951 24.8067 104.618 25.2667 104.165 25.68C103.725 26.08 103.191 26.4 102.565 26.64C101.951 26.8667 101.278 26.98 100.545 26.98ZM112.87 26.98C111.79 26.98 110.83 26.7333 109.99 26.24C109.163 25.7333 108.503 25.0533 108.01 24.2C107.53 23.3467 107.29 22.38 107.29 21.3C107.29 20.2333 107.53 19.2733 108.01 18.42C108.49 17.5667 109.15 16.9 109.99 16.42C110.83 15.9267 111.79 15.68 112.87 15.68C113.603 15.68 114.29 15.8133 114.93 16.08C115.57 16.3333 116.123 16.6867 116.59 17.14C117.07 17.5933 117.423 18.12 117.65 18.72L115.67 19.64C115.443 19.08 115.077 18.6333 114.57 18.3C114.077 17.9533 113.51 17.78 112.87 17.78C112.257 17.78 111.703 17.9333 111.21 18.24C110.73 18.5333 110.35 18.9533 110.07 19.5C109.79 20.0333 109.65 20.64 109.65 21.32C109.65 22 109.79 22.6133 110.07 23.16C110.35 23.6933 110.73 24.1133 111.21 24.42C111.703 24.7267 112.257 24.88 112.87 24.88C113.523 24.88 114.09 24.7133 114.57 24.38C115.063 24.0333 115.43 23.5733 115.67 23L117.65 23.94C117.437 24.5133 117.09 25.0333 116.61 25.5C116.143 25.9533 115.59 26.3133 114.95 26.58C114.31 26.8467 113.617 26.98 112.87 26.98ZM124.539 26.86C123.406 26.86 122.526 26.54 121.899 25.9C121.272 25.26 120.959 24.36 120.959 23.2V17.96H119.059V15.92H119.359C119.866 15.92 120.259 15.7733 120.539 15.48C120.819 15.1867 120.959 14.7867 120.959 14.28V13.44H123.219V15.92H125.679V17.96H123.219V23.1C123.219 23.4733 123.279 23.7933 123.399 24.06C123.519 24.3133 123.712 24.5133 123.979 24.66C124.246 24.7933 124.592 24.86 125.019 24.86C125.126 24.86 125.246 24.8533 125.379 24.84C125.512 24.8267 125.639 24.8133 125.759 24.8V26.74C125.572 26.7667 125.366 26.7933 125.139 26.82C124.912 26.8467 124.712 26.86 124.539 26.86ZM131.965 26.98C130.858 26.98 129.885 26.7067 129.045 26.16C128.218 25.6133 127.638 24.88 127.305 23.96L129.045 23.14C129.338 23.7533 129.738 24.24 130.245 24.6C130.765 24.96 131.338 25.14 131.965 25.14C132.498 25.14 132.931 25.02 133.265 24.78C133.598 24.54 133.765 24.2133 133.765 23.8C133.765 23.5333 133.691 23.32 133.545 23.16C133.398 22.9867 133.211 22.8467 132.985 22.74C132.771 22.6333 132.551 22.5533 132.325 22.5L130.625 22.02C129.691 21.7533 128.991 21.3533 128.525 20.82C128.071 20.2733 127.845 19.64 127.845 18.92C127.845 18.2667 128.011 17.7 128.345 17.22C128.678 16.7267 129.138 16.3467 129.725 16.08C130.311 15.8133 130.971 15.68 131.705 15.68C132.691 15.68 133.571 15.9267 134.345 16.42C135.118 16.9 135.665 17.5733 135.985 18.44L134.245 19.26C134.031 18.74 133.691 18.3267 133.225 18.02C132.771 17.7133 132.258 17.56 131.685 17.56C131.191 17.56 130.798 17.68 130.505 17.92C130.211 18.1467 130.065 18.4467 130.065 18.82C130.065 19.0733 130.131 19.2867 130.265 19.46C130.398 19.62 130.571 19.7533 130.785 19.86C130.998 19.9533 131.218 20.0333 131.445 20.1L133.205 20.62C134.098 20.8733 134.785 21.2733 135.265 21.82C135.745 22.3533 135.985 22.9933 135.985 23.74C135.985 24.38 135.811 24.9467 135.465 25.44C135.131 25.92 134.665 26.3 134.065 26.58C133.465 26.8467 132.765 26.98 131.965 26.98Z" fill="black"/>
</svg>
