<svg width="107" height="36" viewBox="0 0 107 36" fill="none" xmlns="http://www.w3.org/2000/svg">
<path d="M8.31884 24.1852C8.79219 23.1124 9.85431 22.42 11.027 22.42H26.1467C27.3416 22.42 28.4194 23.1386 28.8789 24.2416L30.1123 27.2016C30.9247 29.1512 29.4922 31.3 27.38 31.3H9.72111C7.58257 31.3 6.14975 29.1018 7.01296 27.1452L8.31884 24.1852Z" stroke="black" stroke-width="2"/>
<path d="M24.42 26.86H12.58" stroke="black" stroke-width="2" stroke-linecap="round"/>
<path d="M25.9 6.14001H11.1C9.46525 6.14001 8.14001 7.46525 8.14001 9.10001V19.46C8.14001 21.0948 9.46525 22.42 11.1 22.42H25.9C27.5348 22.42 28.86 21.0948 28.86 19.46V9.10001C28.86 7.46525 27.5348 6.14001 25.9 6.14001Z" stroke="black" stroke-width="2"/>
<path d="M63.76 26.72C62.8267 26.72 61.96 26.5466 61.16 26.2C60.36 25.84 59.68 25.3533 59.12 24.74C58.56 24.1266 58.1467 23.42 57.88 22.62L59.88 21.78C60.24 22.7 60.7667 23.4066 61.46 23.9C62.1533 24.3933 62.9533 24.64 63.86 24.64C64.3933 24.64 64.86 24.56 65.26 24.4C65.66 24.2266 65.9667 23.9866 66.18 23.68C66.4067 23.3733 66.52 23.02 66.52 22.62C66.52 22.0733 66.3667 21.64 66.06 21.32C65.7533 21 65.3 20.7466 64.7 20.56L61.9 19.68C60.78 19.3333 59.9267 18.8066 59.34 18.1C58.7533 17.38 58.46 16.54 58.46 15.58C58.46 14.74 58.6667 14.0066 59.08 13.38C59.4933 12.74 60.06 12.24 60.78 11.88C61.5133 11.52 62.3467 11.34 63.28 11.34C64.1733 11.34 64.9867 11.5 65.72 11.82C66.4533 12.1266 67.08 12.5533 67.6 13.1C68.1333 13.6466 68.52 14.28 68.76 15L66.8 15.86C66.5067 15.0733 66.0467 14.4666 65.42 14.04C64.8067 13.6133 64.0933 13.4 63.28 13.4C62.7867 13.4 62.3533 13.4866 61.98 13.66C61.6067 13.82 61.3133 14.06 61.1 14.38C60.9 14.6866 60.8 15.0466 60.8 15.46C60.8 15.94 60.9533 16.3666 61.26 16.74C61.5667 17.1133 62.0333 17.3933 62.66 17.58L65.26 18.4C66.4467 18.76 67.34 19.28 67.94 19.96C68.54 20.6266 68.84 21.46 68.84 22.46C68.84 23.2866 68.62 24.02 68.18 24.66C67.7533 25.3 67.16 25.8066 66.4 26.18C65.64 26.54 64.76 26.72 63.76 26.72ZM71.2692 26.48V11.34H73.5292V21.48L72.6492 21.26L78.0692 15.66H80.8892L76.8092 20L81.0692 26.48H78.4692L74.6692 20.74L76.0092 20.56L72.8092 23.96L73.5292 22.46V26.48H71.2692ZM82.6169 26.48V15.66H84.8769V26.48H82.6169ZM82.6169 14.18V11.58H84.8769V14.18H82.6169ZM87.5192 26.48V11.34H89.7792V26.48H87.5192ZM92.4216 26.48V11.34H94.6816V26.48H92.4216ZM101.324 26.72C100.217 26.72 99.2439 26.4466 98.4039 25.9C97.5772 25.3533 96.9972 24.62 96.6639 23.7L98.4039 22.88C98.6972 23.4933 99.0972 23.98 99.6039 24.34C100.124 24.7 100.697 24.88 101.324 24.88C101.857 24.88 102.291 24.76 102.624 24.52C102.957 24.28 103.124 23.9533 103.124 23.54C103.124 23.2733 103.051 23.06 102.904 22.9C102.757 22.7266 102.571 22.5866 102.344 22.48C102.131 22.3733 101.911 22.2933 101.684 22.24L99.9839 21.76C99.0506 21.4933 98.3506 21.0933 97.8839 20.56C97.4306 20.0133 97.2039 19.38 97.2039 18.66C97.2039 18.0066 97.3706 17.44 97.7039 16.96C98.0372 16.4666 98.4972 16.0866 99.0839 15.82C99.6706 15.5533 100.331 15.42 101.064 15.42C102.051 15.42 102.931 15.6666 103.704 16.16C104.477 16.64 105.024 17.3133 105.344 18.18L103.604 19C103.391 18.48 103.051 18.0666 102.584 17.76C102.131 17.4533 101.617 17.3 101.044 17.3C100.551 17.3 100.157 17.42 99.8639 17.66C99.5706 17.8866 99.4239 18.1866 99.4239 18.56C99.4239 18.8133 99.4906 19.0266 99.6239 19.2C99.7572 19.36 99.9306 19.4933 100.144 19.6C100.357 19.6933 100.577 19.7733 100.804 19.84L102.564 20.36C103.457 20.6133 104.144 21.0133 104.624 21.56C105.104 22.0933 105.344 22.7333 105.344 23.48C105.344 24.12 105.171 24.6866 104.824 25.18C104.491 25.66 104.024 26.04 103.424 26.32C102.824 26.5866 102.124 26.72 101.324 26.72Z" fill="black"/>
</svg>
